<svg xmlns="http://www.w3.org/2000/svg" version="1.1" xmlns:xlink="http://www.w3.org/1999/xlink" xmlns:svgjs="http://svgjs.com/svgjs" width="1050" height="920" preserveAspectRatio="none" viewBox="0 0 1050 920"><g mask="url(&quot;#SvgjsMask1034&quot;)" fill="none"><rect width="1050" height="920" x="0" y="0" fill="rgba(55, 53, 58, 1)"></rect><path d="M0,510.398C94.301,494.543,136.656,384.893,203.259,316.277C253.553,264.463,303.745,217.198,343.264,156.763C389.317,86.335,454.257,19.055,452.626,-65.078C450.951,-151.462,391.202,-224.655,334.603,-289.935C278.017,-355.2,214.328,-426.617,128.782,-438.592C45.28,-450.281,-26.84,-387.123,-103.125,-351.21C-167.344,-320.977,-229.233,-291.662,-282.638,-244.907C-343.22,-191.869,-402.365,-136.677,-433.153,-62.278C-469.762,26.187,-508.785,127.237,-473.468,216.226C-437.962,305.692,-334.262,342.106,-252.504,392.904C-172.021,442.91,-93.442,526.108,0,510.398" fill="#242326"></path><path d="M1050 1316.965C1128.295 1310.557 1214.237 1320.365 1276.593 1272.585 1337.797 1225.688 1331.366 1132.084 1374.603 1068.241 1430.526 985.667 1579.517 944.621 1565.585 845.87 1551.6689999999999 747.232 1398.337 747.817 1320.607 685.518 1261.504 638.148 1235.945 554.163 1165.841 525.482 1093.086 495.716 1009.542 503.316 934.804 527.677 861.354 551.619 794.492 597.034 750.822 660.761 709.479 721.093 725.704 801.113 700.404 869.736 665.6990000000001 963.869 553.639 1038.8220000000001 575.323 1136.778 596.1610000000001 1230.912 708.111 1277.518 798.248 1311.734 878.343 1342.138 964.614 1323.953 1050 1316.965" fill="#4a484e"></path></g><defs><mask id="SvgjsMask1034"><rect width="1050" height="920" fill="#ffffff"></rect></mask></defs></svg>