<?xml version="1.0" standalone="no"?><svg xmlns="http://www.w3.org/2000/svg" viewBox="0 0 1440 320"><path fill="#0099ff" fill-opacity="1" d="M0,160L40,181.3C80,203,160,245,240,250.7C320,256,400,224,480,218.7C560,213,640,235,720,213.3C800,192,880,128,960,101.3C1040,75,1120,85,1200,96C1280,107,1360,117,1400,122.7L1440,128L1440,320L1400,320C1360,320,1280,320,1200,320C1120,320,1040,320,960,320C880,320,800,320,720,320C640,320,560,320,480,320C400,320,320,320,240,320C160,320,80,320,40,320L0,320Z"></path></svg>